<svg xmlns="http://www.w3.org/2000/svg" viewBox="0 0 32 32"><rect x="14" y="2" width="6" height="1"/><rect x="11" y="3" width="12" height="1"/><rect x="10" y="4" width="6" height="1"/><rect x="18" y="4" width="6" height="1"/><rect x="9" y="5" width="5" height="1"/><rect x="20" y="5" width="4" height="1"/><rect x="7" y="6" width="6" height="1"/><rect x="21" y="6" width="4" height="1"/><rect x="7" y="7" width="5" height="1"/><rect x="22" y="7" width="4" height="1"/><rect x="6" y="8" width="5" height="1"/><rect x="23" y="8" width="3" height="1"/><rect x="5" y="9" width="5" height="1"/><rect x="24" y="9" width="3" height="1"/><rect x="4" y="10" width="5" height="1"/><rect x="24" y="10" width="4" height="1"/><rect x="4" y="11" width="4" height="1"/><rect x="12" y="11" width="6" height="1"/><rect x="24" y="11" width="5" height="1"/><rect x="3" y="12" width="5" height="1"/><rect x="11" y="12" width="9" height="1"/><rect x="24" y="12" width="2" height="1"/><rect x="27" y="12" width="2" height="1"/><rect x="3" y="13" width="6" height="1"/><rect x="10" y="13" width="10" height="1"/><rect x="24" y="13" width="1" height="1"/><rect x="27" y="13" width="2" height="1"/><rect x="3" y="14" width="5" height="1"/><rect x="10" y="14" width="10" height="1"/><rect x="27" y="14" width="2" height="1"/><rect x="3" y="15" width="5" height="1"/><rect x="10" y="15" width="10" height="1"/><rect x="26" y="15" width="2" height="1"/><rect x="2" y="16" width="6" height="1"/><rect x="9" y="16" width="11" height="1"/><rect x="24" y="16" width="1" height="1"/><rect x="26" y="16" width="1" height="1"/><rect x="2" y="17" width="6" height="1"/><rect x="9" y="17" width="11" height="1"/><rect x="22" y="17" width="5" height="1"/><rect x="2" y="18" width="6" height="1"/><rect x="9" y="18" width="11" height="1"/><rect x="23" y="18" width="2" height="1"/><rect x="3" y="19" width="5" height="1"/><rect x="9" y="19" width="13" height="1"/><rect x="3" y="20" width="5" height="1"/><rect x="10" y="20" width="5" height="1"/><rect x="3" y="21" width="4" height="1"/><rect x="4" y="22" width="3" height="1"/><rect x="4" y="23" width="5" height="1"/><rect x="5" y="24" width="4" height="1"/><rect x="6" y="25" width="4" height="1"/><rect x="7" y="26" width="4" height="1"/><rect x="19" y="26" width="4" height="1"/><rect x="8" y="27" width="5" height="1"/><rect x="17" y="27" width="5" height="1"/><rect x="9" y="28" width="13" height="1"/><rect x="12" y="29" width="7" height="1"/></svg>
