<svg xmlns="http://www.w3.org/2000/svg" viewBox="0 0 32 32"><rect x="19" y="3" width="2" height="1"/><rect x="22" y="3" width="1" height="1"/><rect x="19" y="4" width="4" height="1"/><rect x="19" y="5" width="3" height="1"/><rect x="19" y="6" width="3" height="1"/><rect x="19" y="7" width="2" height="1"/><rect x="18" y="8" width="3" height="1"/><rect x="17" y="9" width="4" height="1"/><rect x="17" y="10" width="3" height="1"/><rect x="17" y="11" width="3" height="1"/><rect x="16" y="12" width="3" height="1"/><rect x="16" y="13" width="3" height="1"/><rect x="15" y="14" width="3" height="1"/><rect x="15" y="15" width="2" height="1"/><rect x="14" y="16" width="3" height="1"/><rect x="14" y="17" width="1" height="1"/><rect x="13" y="18" width="2" height="1"/><rect x="13" y="19" width="1" height="1"/><rect x="12" y="20" width="2" height="1"/><rect x="12" y="21" width="1" height="1"/><rect x="8" y="27" width="1" height="1"/><rect x="11" y="27" width="2" height="1"/><rect x="7" y="28" width="6" height="1"/></svg>
