<svg xmlns="http://www.w3.org/2000/svg" viewBox="0 0 32 32"><rect x="19" y="2" width="4" height="1"/><rect x="15" y="3" width="11" height="1"/><rect x="15" y="4" width="5" height="1"/><rect x="21" y="4" width="2" height="1"/><rect x="14" y="5" width="5" height="1"/><rect x="12" y="6" width="8" height="1"/><rect x="11" y="7" width="6" height="1"/><rect x="10" y="8" width="5" height="1"/><rect x="9" y="9" width="5" height="1"/><rect x="8" y="10" width="5" height="1"/><rect x="7" y="11" width="6" height="1"/><rect x="6" y="12" width="9" height="1"/><rect x="18" y="12" width="2" height="1"/><rect x="6" y="13" width="13" height="1"/><rect x="5" y="14" width="11" height="1"/><rect x="6" y="15" width="13" height="1"/><rect x="6" y="16" width="7" height="1"/><rect x="6" y="17" width="11" height="1"/><rect x="5" y="18" width="12" height="1"/><rect x="5" y="19" width="12" height="1"/><rect x="5" y="20" width="11" height="1"/><rect x="5" y="21" width="9" height="1"/><rect x="5" y="22" width="5" height="1"/><rect x="6" y="23" width="4" height="1"/><rect x="6" y="24" width="5" height="1"/><rect x="7" y="25" width="4" height="1"/><rect x="23" y="25" width="2" height="1"/><rect x="9" y="26" width="4" height="1"/><rect x="21" y="26" width="4" height="1"/><rect x="10" y="27" width="5" height="1"/><rect x="19" y="27" width="6" height="1"/><rect x="11" y="28" width="13" height="1"/><rect x="14" y="29" width="6" height="1"/></svg>
