<svg xmlns="http://www.w3.org/2000/svg" viewBox="0 0 32 32"><rect x="15" y="2" width="2" height="1"/><rect x="14" y="3" width="4" height="1"/><rect x="14" y="4" width="4" height="1"/><rect x="14" y="5" width="3" height="1"/><rect x="14" y="6" width="3" height="1"/><rect x="14" y="7" width="3" height="1"/><rect x="14" y="8" width="3" height="1"/><rect x="14" y="9" width="3" height="1"/><rect x="14" y="10" width="3" height="1"/><rect x="14" y="11" width="3" height="1"/><rect x="14" y="12" width="3" height="1"/><rect x="14" y="13" width="3" height="1"/><rect x="14" y="14" width="3" height="1"/><rect x="14" y="15" width="3" height="1"/><rect x="14" y="16" width="3" height="1"/><rect x="14" y="17" width="2" height="1"/><rect x="14" y="18" width="2" height="1"/><rect x="15" y="19" width="1" height="1"/><rect x="15" y="20" width="1" height="1"/><rect x="14" y="27" width="3" height="1"/><rect x="14" y="28" width="4" height="1"/><rect x="14" y="29" width="3" height="1"/></svg>
