<svg xmlns="http://www.w3.org/2000/svg" viewBox="0 0 32 32"><rect x="19" y="2" width="1" height="1"/><rect x="16" y="3" width="5" height="1"/><rect x="17" y="11" width="1" height="1"/><rect x="17" y="12" width="2" height="1"/><rect x="16" y="13" width="3" height="1"/><rect x="16" y="14" width="3" height="1"/><rect x="15" y="15" width="4" height="1"/><rect x="15" y="16" width="4" height="1"/><rect x="15" y="17" width="4" height="1"/><rect x="12" y="18" width="1" height="1"/><rect x="16" y="18" width="3" height="1"/><rect x="11" y="19" width="2" height="1"/><rect x="15" y="19" width="4" height="1"/><rect x="10" y="20" width="3" height="1"/><rect x="14" y="20" width="4" height="1"/><rect x="10" y="21" width="5" height="1"/><rect x="10" y="22" width="3" height="1"/><rect x="9" y="23" width="4" height="1"/><rect x="9" y="24" width="4" height="1"/><rect x="9" y="25" width="4" height="1"/><rect x="10" y="26" width="3" height="1"/><rect x="20" y="26" width="1" height="1"/><rect x="10" y="27" width="4" height="1"/><rect x="17" y="27" width="4" height="1"/><rect x="11" y="28" width="10" height="1"/><rect x="12" y="29" width="7" height="1"/></svg>
