<svg xmlns="http://www.w3.org/2000/svg" viewBox="0 0 32 32"><rect x="15" y="2" width="3" height="1"/><rect x="14" y="3" width="4" height="1"/><rect x="14" y="4" width="4" height="1"/><rect x="15" y="11" width="1" height="1"/><rect x="15" y="12" width="2" height="1"/><rect x="14" y="13" width="3" height="1"/><rect x="14" y="14" width="3" height="1"/><rect x="14" y="15" width="3" height="1"/><rect x="14" y="16" width="3" height="1"/><rect x="14" y="17" width="3" height="1"/><rect x="14" y="18" width="3" height="1"/><rect x="14" y="19" width="3" height="1"/><rect x="14" y="20" width="3" height="1"/><rect x="14" y="21" width="3" height="1"/><rect x="14" y="22" width="3" height="1"/><rect x="14" y="23" width="3" height="1"/><rect x="14" y="24" width="3" height="1"/><rect x="13" y="25" width="4" height="1"/><rect x="13" y="26" width="4" height="1"/><rect x="13" y="27" width="4" height="1"/><rect x="13" y="28" width="5" height="1"/><rect x="14" y="29" width="3" height="1"/></svg>
