<svg xmlns="http://www.w3.org/2000/svg" viewBox="0 0 32 32"><rect x="17" y="2" width="3" height="1"/><rect x="16" y="3" width="5" height="1"/><rect x="15" y="4" width="5" height="1"/><rect x="14" y="5" width="4" height="1"/><rect x="14" y="6" width="3" height="1"/><rect x="13" y="7" width="3" height="1"/><rect x="12" y="8" width="4" height="1"/><rect x="12" y="9" width="3" height="1"/><rect x="12" y="10" width="3" height="1"/><rect x="11" y="11" width="3" height="1"/><rect x="11" y="12" width="3" height="1"/><rect x="10" y="13" width="4" height="1"/><rect x="10" y="14" width="4" height="1"/><rect x="10" y="15" width="4" height="1"/><rect x="10" y="16" width="3" height="1"/><rect x="10" y="17" width="3" height="1"/><rect x="10" y="18" width="3" height="1"/><rect x="10" y="19" width="4" height="1"/><rect x="11" y="20" width="3" height="1"/><rect x="11" y="21" width="3" height="1"/><rect x="11" y="22" width="3" height="1"/><rect x="11" y="23" width="4" height="1"/><rect x="12" y="24" width="3" height="1"/><rect x="12" y="25" width="4" height="1"/><rect x="12" y="26" width="5" height="1"/><rect x="13" y="27" width="5" height="1"/><rect x="14" y="28" width="7" height="1"/><rect x="16" y="29" width="4" height="1"/></svg>
