<svg xmlns="http://www.w3.org/2000/svg" viewBox="0 0 32 32"><rect x="13" y="5" width="7" height="1"/><rect x="11" y="6" width="11" height="1"/><rect x="10" y="7" width="13" height="1"/><rect x="9" y="8" width="15" height="1"/><rect x="8" y="9" width="17" height="1"/><rect x="7" y="10" width="19" height="1"/><rect x="6" y="11" width="20" height="1"/><rect x="6" y="12" width="21" height="1"/><rect x="6" y="13" width="21" height="1"/><rect x="5" y="14" width="22" height="1"/><rect x="5" y="15" width="22" height="1"/><rect x="5" y="16" width="23" height="1"/><rect x="5" y="17" width="22" height="1"/><rect x="5" y="18" width="22" height="1"/><rect x="6" y="19" width="21" height="1"/><rect x="6" y="20" width="20" height="1"/><rect x="7" y="21" width="19" height="1"/><rect x="7" y="22" width="18" height="1"/><rect x="8" y="23" width="16" height="1"/><rect x="9" y="24" width="15" height="1"/><rect x="10" y="25" width="13" height="1"/><rect x="12" y="26" width="8" height="1"/><rect x="15" y="27" width="2" height="1"/></svg>
