<svg xmlns="http://www.w3.org/2000/svg" viewBox="0 0 32 32"><rect x="12" y="2" width="3" height="1"/><rect x="11" y="3" width="6" height="1"/><rect x="13" y="4" width="4" height="1"/><rect x="14" y="5" width="4" height="1"/><rect x="15" y="6" width="3" height="1"/><rect x="15" y="7" width="4" height="1"/><rect x="16" y="8" width="3" height="1"/><rect x="16" y="9" width="3" height="1"/><rect x="17" y="10" width="2" height="1"/><rect x="17" y="11" width="3" height="1"/><rect x="17" y="12" width="3" height="1"/><rect x="17" y="13" width="3" height="1"/><rect x="17" y="14" width="3" height="1"/><rect x="17" y="15" width="3" height="1"/><rect x="17" y="16" width="3" height="1"/><rect x="17" y="17" width="3" height="1"/><rect x="17" y="18" width="3" height="1"/><rect x="17" y="19" width="3" height="1"/><rect x="17" y="20" width="3" height="1"/><rect x="16" y="21" width="3" height="1"/><rect x="16" y="22" width="3" height="1"/><rect x="16" y="23" width="3" height="1"/><rect x="15" y="24" width="3" height="1"/><rect x="15" y="25" width="3" height="1"/><rect x="14" y="26" width="3" height="1"/><rect x="13" y="27" width="4" height="1"/><rect x="12" y="28" width="4" height="1"/><rect x="12" y="29" width="2" height="1"/></svg>
