<svg width="16" height="16" viewBox="0 0 16 16" fill="none" xmlns="http://www.w3.org/2000/svg">
<path d="M3.5 7.5H13.5C13.6326 7.5 13.7598 7.55268 13.8536 7.64645C13.9473 7.74021 14 7.86739 14 8C14 8.13261 13.9473 8.25979 13.8536 8.35355C13.7598 8.44732 13.6326 8.5 13.5 8.5H3.5C3.36739 8.5 3.24021 8.44732 3.14645 8.35355C3.05268 8.25979 3 8.13261 3 8C3 7.86739 3.05268 7.74021 3.14645 7.64645C3.24021 7.55268 3.36739 7.5 3.5 7.5Z" fill="#606060"/>
<path d="M3.70632 8L7.85476 12.1453C7.90134 12.1919 7.93829 12.2472 7.9635 12.308C7.9887 12.3689 8.00168 12.4341 8.00168 12.5C8.00168 12.5659 7.9887 12.6311 7.9635 12.692C7.93829 12.7528 7.90134 12.8081 7.85476 12.8547C7.80818 12.9013 7.75289 12.9382 7.69203 12.9634C7.63117 12.9886 7.56595 13.0016 7.50007 13.0016C7.4342 13.0016 7.36898 12.9886 7.30812 12.9634C7.24726 12.9382 7.19196 12.9013 7.14539 12.8547L2.64539 8.35469C2.59862 8.30822 2.5615 8.25296 2.53617 8.19209C2.51084 8.13121 2.4978 8.06593 2.4978 8C2.4978 7.93407 2.51084 7.86879 2.53617 7.80792C2.5615 7.74705 2.59862 7.69178 2.64539 7.64531L7.14539 3.14531C7.19196 3.09874 7.24726 3.06179 7.30812 3.03658C7.36898 3.01137 7.4342 2.9984 7.50007 2.9984C7.56595 2.9984 7.63117 3.01137 7.69203 3.03658C7.75289 3.06179 7.80818 3.09874 7.85476 3.14531C7.90134 3.19189 7.93829 3.24719 7.9635 3.30805C7.9887 3.3689 8.00168 3.43413 8.00168 3.5C8.00168 3.56587 7.9887 3.6311 7.9635 3.69196C7.93829 3.75281 7.90134 3.80811 7.85476 3.85469L3.70632 8Z" fill="#606060"/>
</svg>
