<svg width="77" height="66" viewBox="0 0 77 66" fill="none" xmlns="http://www.w3.org/2000/svg">
<path d="M34.5878 63.1402V54.2802C34.5878 53.1802 33.6878 52.2802 32.5878 52.2802H23.7278V43.4202C23.7278 42.3202 22.8278 41.4202 21.7278 41.4202H12.8678V32.5602C12.8678 31.4602 11.9678 30.5602 10.8678 30.5602H2.00781V12.8502H10.8678C11.9678 12.8502 12.8678 11.9502 12.8678 10.8502V1.99023H30.5778V10.8502C30.5778 11.9502 31.4778 12.8502 32.5778 12.8502H43.4378C44.5378 12.8502 45.4378 11.9502 45.4378 10.8502V1.99023H63.1478V10.8502C63.1478 11.9502 64.0478 12.8502 65.1478 12.8502H74.0078V30.5602H65.1478C64.0478 30.5602 63.1478 31.4602 63.1478 32.5602V41.4202H54.2878C53.1878 41.4202 52.2878 42.3202 52.2878 43.4202V52.2802H43.4278C42.3278 52.2802 41.4278 53.1802 41.4278 54.2802V63.1402H34.5678H34.5878Z" fill="#DE1B3C"/>
<path d="M61.16 4V10.86C61.16 13.07 62.95 14.86 65.16 14.86H72.02V28.57H65.16C62.95 28.57 61.16 30.36 61.16 32.57V39.43H54.3C52.09 39.43 50.3 41.22 50.3 43.43V50.29H43.44C41.23 50.29 39.44 52.08 39.44 54.29V61.15H36.58V54.29C36.58 52.08 34.79 50.29 32.58 50.29H25.72V43.43C25.72 41.22 23.93 39.43 21.72 39.43H14.86V32.57C14.86 30.36 13.07 28.57 10.86 28.57H4V14.86H10.86C13.07 14.86 14.86 13.07 14.86 10.86V4H28.57V10.86C28.57 13.07 30.36 14.86 32.57 14.86H43.43C45.64 14.86 47.43 13.07 47.43 10.86V4H61.14M65.14 0H43.43V10.86H32.57V0H10.86V10.86H0V32.57H10.86V43.43H21.72V54.29H32.58V65.15H43.44V54.29H54.3V43.43H65.16V32.57H76.02V10.86H65.16V0H65.14Z" fill="#DE1B3C"/>
</svg>
